<?xml version="1.0" encoding="UTF-8" standalone="no"?>
<svg width="96px" height="231px" viewBox="0 0 96 231" version="1.1" xmlns="http://www.w3.org/2000/svg" xmlns:xlink="http://www.w3.org/1999/xlink">
    <!-- Generator: Sketch 3.6.1 (26313) - http://www.bohemiancoding.com/sketch -->
    <title>Combined Shape</title>
    <desc>Created with Sketch.</desc>
    <defs></defs>
    <g id="Page-1" stroke="none" stroke-width="1" fill="none" fill-rule="evenodd">
        <g id="02a-Trip-List-Empty" transform="translate(-134.000000, -329.000000)" fill="#D7D7DC">
            <g id="Group-3" transform="translate(0.000000, 64.000000)">
                <path d="M157.682426,388.331198 L157.538935,388.331198 L157.538935,415.4599 L168.390416,415.4599 L168.390416,388.331198 L167.502786,388.331198 C166.914053,390.16523 165.491834,390.023397 162.084375,390.023395 C159.582131,390.023394 158.237421,389.272552 157.682426,388.331198 Z M157.919352,385.618328 L155.819775,385.618328 C155.2784,385.618328 154.826065,386.063701 154.826065,386.613096 L154.826065,387.33643 C154.826065,387.853195 155.223441,388.281697 155.730355,388.327203 L155.730355,415.4599 L139.032648,415.4599 C136.264275,415.4599 134.027393,417.701982 134.027393,420.46773 L134.027393,490.507563 C134.027393,493.269616 136.268322,495.515393 139.032648,495.515393 L181.470962,495.515393 C184.239335,495.515393 186.476217,493.273311 186.476217,490.507563 L186.476217,482.825371 C189.2133,480.074033 191.231829,472.485891 191.231828,454.403543 C191.231826,429.804945 193.038685,430.584398 193.038685,418.952842 C193.038685,407.321285 194.183499,407.0565 194.183499,407.0565 C194.183499,407.0565 195.162706,403.118011 196.423408,393.756939 L199.588423,407.32129 C199.588423,407.32129 199.668508,420.0646 200.492713,424.502801 C201.316918,428.941002 202.990539,431.562415 202.990539,431.562415 C202.990539,431.562415 204.364415,447.142871 204.364415,457.647343 C204.364415,468.151815 204.463009,476.579375 206.615727,480.438912 C206.087867,484.588513 206.380836,487.206631 208.476795,488.818295 C208.476795,488.818295 209.055423,491.364667 213.12997,494.710889 C213.866821,495.316028 216.404777,495.515393 216.404777,495.515393 C216.404777,495.515393 221.897109,495.277783 221.372734,491.591427 C220.848358,487.905072 216.159239,482.685056 216.404777,481.612057 C216.23721,481.1427 216.236519,480.537928 216.338209,479.878546 C216.39212,479.528971 217.406249,479.878552 217.406249,479.878552 L218.40787,474.403868 C218.40787,474.403868 220.669586,468.035885 220.669587,455.438639 C220.669587,442.841393 218.874581,426.930973 218.874581,414.665184 C218.874581,402.399394 218.216628,389.374083 220.099327,378.022394 C225.54504,375.227504 226.956022,368.603691 226.956022,368.603691 C226.956022,368.603691 226.431866,362.958851 227.273983,360.991323 C228.116101,359.023795 227.152638,357.585442 227.9943,356.073644 C228.835962,354.561845 229.012964,347.683023 229.012962,343.461027 C229.01296,339.23903 229.334117,329.871716 226.946442,321.406739 C224.558767,312.941761 225.280909,307.656853 223.54193,305.152849 C221.802952,302.648846 211.236234,301.146512 208.751391,299.472768 C206.266549,297.799023 205.692874,296.857421 203.911925,295.650354 C203.911925,295.650354 203.650646,291.792135 204.532221,289.431916 C205.884339,288.988952 206.30045,288.276725 207.263069,285.195569 C208.225688,282.114413 208.171497,281.348963 206.802928,282.111994 C207.907557,279.358405 208.127709,275.956215 208.127709,272.346211 C207.263069,270.020345 203.666855,265.932782 196.975454,265.932782 C190.284053,265.932782 185.803604,271.656483 185.803604,271.656483 C185.803604,271.656483 186.106252,277.514937 187.496352,280.854226 C186.495025,280.854227 185.858521,281.916519 186.677437,284.775829 C187.496352,287.63514 187.867949,288.691384 188.999916,287.80981 C189.585858,291.073376 189.029189,296.140494 189.029189,296.140494 C189.029189,296.140494 187.002584,298.117503 186.085688,298.47773 C185.168793,298.837958 173.319552,301.954993 171.098682,303.369454 C168.877812,304.783914 168.418396,308.847842 168.418396,308.847842 C168.418396,308.847842 166.763629,322.125407 166.18301,329.324366 C165.60239,336.523325 164.842607,336.529074 164.308441,341.975383 C163.774275,347.421693 163.245767,353.241226 162.38795,357.116274 C161.530133,360.991321 159.018908,374.581314 159.018908,378.443304 C160.238311,379.037618 160.219025,383.787161 158.447779,385.096845 C158.248413,385.244258 158.070422,385.420902 157.919352,385.618328 Z M167.862763,385.618328 L170.109576,385.618328 C170.658387,385.618328 171.103286,386.066303 171.103286,386.613096 L171.103286,387.33643 C171.103286,387.855276 170.699857,388.281347 170.198996,388.327126 L170.198996,415.4599 L175.428779,415.4599 C174.871903,396.831497 174.673554,382.350439 174.673554,382.350439 L173.705576,382.262491 C172.801437,377.050885 173.522111,365.347557 174.106034,357.332364 C170.962267,364.553422 169.195806,379.081052 169.195806,379.081052 L167.994054,379.378665 C167.994054,379.378665 167.911175,380.274518 167.911175,382.262491 C167.911175,383.597044 167.902149,384.702581 167.862763,385.618328 Z" id="Combined-Shape"></path>
            </g>
        </g>
    </g>
</svg>