<?xml version="1.0" encoding="UTF-8" standalone="no"?>
<svg width="287px" height="69px" viewBox="0 0 287 69" version="1.1" xmlns="http://www.w3.org/2000/svg" xmlns:xlink="http://www.w3.org/1999/xlink">
    <!-- Generator: Sketch 3.6.1 (26313) - http://www.bohemiancoding.com/sketch -->
    <title>Combined Shape</title>
    <desc>Created with Sketch.</desc>
    <defs></defs>
    <g id="Page-1" stroke="none" stroke-width="1" fill="none" fill-rule="evenodd">
        <g id="02a-Trip-List-Empty" transform="translate(-44.000000, -211.000000)" fill="#D7D7DC">
            <g id="Group-3" transform="translate(0.000000, 64.000000)">
                <path d="M307.02126,176.054366 L305.784753,173.401735 L308.119559,169.99346 C308.119559,169.99346 315.442034,167.7622 321.360757,163.815225 C327.27948,159.868249 330.14863,155.786271 330.14861,154.367649 C330.14859,152.949027 327.065403,150.939277 321.865816,150.939277 C318.774292,148.118198 307.41877,146.338258 298.904415,147.531002 C290.39006,148.723745 190.657062,174.235782 190.657062,174.235782 C190.657062,174.235782 181.404788,173.356297 177.350328,174.119129 C173.384567,173.356297 167.50124,171.914958 164.888563,171.914957 C162.275887,171.914955 166.834966,176.079509 168.349703,176.696416 C169.864441,177.313322 173.005334,178.711409 173.005334,178.711409 L114.027891,193.429774 C114.027891,193.429774 106.829829,195.466174 100.994659,193.331908 C95.1594887,191.197642 56.631598,166.468532 56.631598,166.468532 L44,169.493746 L62.3854855,201.571545 L55.7086111,203.256738 L62.3110967,205.959532 L56.0481294,208.014762 L57.2345359,211.320296 L95.1594874,215.07121 C95.1594874,215.07121 121.332918,217.43067 149.732278,210.343704 C178.131638,203.256739 174.591499,204.260987 174.591499,204.260987 L176.043035,207.69241 C176.043035,207.69241 184.819003,209.455806 191.166856,206.356272 C191.504519,206.191398 191.848357,206.034657 192.198422,205.885336 C192.139696,206.119583 192.108513,206.364755 192.108513,206.61721 C192.108513,208.274065 193.451659,209.61721 195.108513,209.61721 C196.765367,209.61721 198.108513,208.274065 198.108513,206.61721 C198.108513,205.695244 197.692617,204.870415 197.038199,204.320099 C197.920749,204.104204 198.833989,203.909117 199.778439,203.727411 C199.359548,204.243258 199.108513,204.900918 199.108513,205.61721 C199.108513,207.274065 200.451659,208.61721 202.108513,208.61721 C203.765367,208.61721 205.108513,207.274065 205.108513,205.61721 C205.108513,204.536511 204.537081,203.589276 203.679886,203.061175 C204.425165,202.945633 205.18722,202.831978 205.966246,202.717377 C206.510712,203.272688 207.269378,203.61721 208.108513,203.61721 C209.263556,203.61721 210.266139,202.964455 210.767492,202.007715 C212.776388,201.700894 214.883038,201.357351 217.090088,200.939251 C228.134979,198.846926 228.73135,197.177085 228.73135,197.177085 L228.658388,192.496551 C228.658388,192.496551 237.881401,191.140406 245.915592,186.372928 L301.264124,172.193263 L301.730299,174.086798 L304.21103,173.815045 L304.582201,175.83691 C303.713326,176.228581 303.108513,177.102265 303.108513,178.11721 C303.108513,179.497922 304.227801,180.61721 305.608513,180.61721 C306.989225,180.61721 308.108513,179.497922 308.108513,178.11721 C308.108513,177.260759 307.677846,176.504895 307.02126,176.054366 Z" id="Combined-Shape"></path>
            </g>
        </g>
    </g>
</svg>