<?xml version="1.0" encoding="UTF-8" standalone="no"?>
<svg width="21px" height="15px" viewBox="0 0 21 15" version="1.1" xmlns="http://www.w3.org/2000/svg" xmlns:xlink="http://www.w3.org/1999/xlink">
    <!-- Generator: Sketch 3.6.1 (26313) - http://www.bohemiancoding.com/sketch -->
    <title>photo-unactive@3x</title>
    <desc>Created with Sketch.</desc>
    <defs></defs>
    <g id="Page-1" stroke="none" stroke-width="1" fill="none" fill-rule="evenodd">
        <g id="04b-Icon" transform="translate(-177.000000, -630.000000)" fill="#A7A7A7">
            <g id="Bottom-Bar/Tab-Bar" transform="translate(0.000000, 618.000000)">
                <path d="M178.024494,25.9510126 L178,25.9795049 L178,13 L197,13 L197,19.5555556 L193,16 L187,22 L186.414214,21.4142136 L184,19 L178,26 L178.024494,25.9510126 Z M180.667045,21.2495741 C179.657452,20.5234792 179,19.3385177 179,18 C179,15.790861 180.790861,14 183,14 C185.209139,14 187,15.790861 187,18 C187,18.7193815 186.810096,19.3944085 186.477684,19.9776844 L185.701373,19.2013727 C185.862309,18.8335334 185.951599,18.4271942 185.951599,18 C185.951599,16.3431458 184.608453,15 182.951599,15 C181.294745,15 179.951599,16.3431458 179.951599,18 C179.951599,19.0544803 180.49564,19.981893 181.318345,20.5168618 L180.667045,21.2495741 Z M177,13.007484 C177,12.4510659 177.438615,12 177.998746,12 L197.001254,12 C197.552846,12 198,12.4489202 198,13.007484 L198,25.992516 C198,26.5489341 197.561385,27 197.001254,27 L177.998746,27 C177.447154,27 177,26.5510798 177,25.992516 L177,13.007484 Z M179.280823,26.0188599 L184.016479,20.6452026 L186.993042,23.7208862 L193.036682,17.7484741 L197.027344,21.234375 L197,26 L179.280823,26.0188599 Z" id="photo-unactive"></path>
            </g>
        </g>
    </g>
</svg>