<?xml version="1.0" encoding="UTF-8" standalone="no"?>
<svg width="17px" height="17px" viewBox="0 0 17 17" version="1.1" xmlns="http://www.w3.org/2000/svg" xmlns:xlink="http://www.w3.org/1999/xlink">
    <!-- Generator: Sketch 3.6.1 (26313) - http://www.bohemiancoding.com/sketch -->
    <title>settings-icon@3x</title>
    <desc>Created with Sketch.</desc>
    <defs></defs>
    <g id="Page-1" stroke="none" stroke-width="1" fill="none" fill-rule="evenodd">
        <g id="02a-Trip-List-Empty" transform="translate(-349.000000, -35.000000)" fill="#0076FF">
            <g id="Navigation-Bar/Back">
                <path d="M363.174092,39.1132577 C362.76855,38.5726479 362.288959,38.0917184 361.750718,37.6858575 C361.933648,36.6946672 362.006188,36.0747989 362.006188,36.0747989 C362.014084,36.0122581 361.984818,35.9336121 361.920216,35.8867699 C361.920216,35.8867699 361.688432,35.6820405 360.926428,35.3556983 C360.164424,35.0293561 359.857448,35.0033513 359.857448,35.0033513 C359.789531,34.9918531 359.702528,35.0224543 359.663668,35.0715714 C359.663668,35.0715714 359.276172,35.5498054 358.701522,36.3633408 C358.310824,36.2960596 357.909381,36.2610164 357.5,36.2610164 C357.090415,36.2610164 356.688916,36.2959587 356.298272,36.3630489 C355.723735,35.549691 355.336332,35.0715714 355.336332,35.0715714 C355.297228,35.0223963 355.220826,34.9890044 355.142552,35.0033513 C355.142552,35.0033513 354.835576,35.0293561 354.073572,35.3556983 C353.311569,35.6820405 353.079784,35.8867699 353.079784,35.8867699 C353.024407,35.9280746 352.985788,36.0124759 352.993812,36.0747989 C352.993812,36.0747989 353.066249,36.6937854 353.248892,37.6837424 C352.610219,38.1650132 352.054373,38.7520032 351.606829,39.4189883 C350.610281,39.2674527 349.987792,39.2154443 349.987792,39.2154443 C349.925568,39.2096654 349.848687,39.2419193 349.804543,39.3086939 C349.804543,39.3086939 349.60984,39.5495522 349.313179,40.3292871 C349.016518,41.1090221 349.001473,41.4194608 349.001473,41.4194608 C348.992454,41.4883443 349.025801,41.5750032 349.07581,41.6124725 C349.07581,41.6124725 349.582978,42.0018072 350.439531,42.5712412 C350.405741,42.8548661 350.388354,43.1435762 350.388354,43.436377 L350.388354,43.5636234 C350.388354,43.9861569 350.424642,44.4001602 350.494232,44.8026488 C349.670306,45.4152454 349.185266,45.8297696 349.185266,45.8297696 C349.137216,45.870076 349.105458,45.9477314 349.121042,46.026442 C349.121042,46.026442 349.15217,46.3356609 349.488871,47.0986624 C349.825572,47.861664 350.032502,48.0919111 350.032502,48.0919111 C350.074401,48.1470535 350.158716,48.1845394 350.220337,48.1753567 C350.220337,48.1753567 350.838987,48.0905893 351.825909,47.8867428 C352.23145,48.4273526 352.711042,48.9082821 353.249283,49.3141429 C353.066353,50.305333 352.993813,50.925201 352.993813,50.925201 C352.985917,50.9877417 353.015182,51.0663878 353.079785,51.1132301 C353.079785,51.1132301 353.311569,51.3179599 354.073572,51.6443021 C354.835576,51.9706443 355.142553,51.9966488 355.142553,51.9966488 C355.21047,52.0081468 355.297472,51.9775456 355.336332,51.9284284 C355.336332,51.9284284 355.723828,51.4501947 356.298478,50.6366597 C356.689176,50.7039408 357.090619,50.738984 357.5,50.738984 C357.909586,50.738984 358.311084,50.7040417 358.701728,50.6369515 C359.276265,51.450309 359.663668,51.9284284 359.663668,51.9284284 C359.702773,51.9776036 359.779174,52.0109956 359.857448,51.9966488 C359.857448,51.9966488 360.164424,51.9706443 360.926428,51.6443021 C361.688432,51.3179599 361.920216,51.1132301 361.920216,51.1132301 C361.975593,51.0719253 362.014212,50.987524 362.006188,50.925201 C362.006188,50.925201 361.933751,50.3062147 361.751108,49.3162581 C362.389781,48.8349873 362.945628,48.2479972 363.393171,47.5810121 C364.389719,47.7325476 365.012208,47.7845558 365.012208,47.7845558 C365.074432,47.7903348 365.151313,47.7580809 365.195457,47.6913063 C365.195457,47.6913063 365.390161,47.4504482 365.686822,46.6707133 C365.983482,45.8909783 365.998527,45.5805395 365.998527,45.5805395 C366.007546,45.511656 365.974198,45.424997 365.92419,45.3875277 C365.92419,45.3875277 365.417022,44.9981932 364.560469,44.4287593 C364.594259,44.1451343 364.611647,43.8564242 364.611647,43.5636234 L364.611647,43.436377 C364.611647,43.0138435 364.575358,42.5998401 364.505768,42.1973515 C365.329694,41.584755 365.814734,41.1702311 365.814734,41.1702311 C365.862784,41.1299247 365.894542,41.0522692 365.878958,40.9735586 C365.878958,40.9735586 365.84783,40.6643396 365.511129,39.901338 C365.174429,39.1383365 364.967498,38.9080895 364.967498,38.9080895 C364.925599,38.8529471 364.841284,38.8154613 364.779662,38.824644 C364.779662,38.824644 364.161013,38.9094113 363.174092,39.1132577 L363.174092,39.1132577 Z M357.5,39.7081515 C355.442658,39.7081515 353.774852,41.3912198 353.774852,43.4555654 L353.774852,43.544435 C353.774852,45.6140745 355.446844,47.2918488 357.5,47.2918488 C359.557343,47.2918488 361.225149,45.6087806 361.225149,43.544435 L361.225149,43.4555654 C361.225149,41.3859259 359.553156,39.7081515 357.5,39.7081515 L357.5,39.7081515 Z" id="settings-icon"></path>
            </g>
        </g>
    </g>
</svg>