<?xml version="1.0" encoding="UTF-8" standalone="no"?>
<svg width="21px" height="17px" viewBox="0 0 21 17" version="1.1" xmlns="http://www.w3.org/2000/svg" xmlns:xlink="http://www.w3.org/1999/xlink">
    <!-- Generator: Sketch 3.6.1 (26313) - http://www.bohemiancoding.com/sketch -->
    <title>Statistics active</title>
    <desc>Created with Sketch.</desc>
    <defs></defs>
    <g id="Page-1" stroke="none" stroke-width="1" fill="none" fill-rule="evenodd">
        <g id="07-Report-Details" transform="translate(-302.000000, -629.000000)" fill="#0076FF">
            <g id="Bottom-Bar/Tab-Bar" transform="translate(0.000000, 618.000000)">
                <path d="M314.600575,20.2994583 L310.954363,17.8686501 C310.984167,17.750707 311,17.6272026 311,17.5 C311,16.6715729 310.328427,16 309.5,16 C308.671573,16 308,16.6715729 308,17.5 C308,17.8374235 308.111413,18.1488252 308.299458,18.3994248 L305.86865,22.0456371 C305.750707,22.0158335 305.627203,22 305.5,22 C304.671573,22 304,22.6715729 304,23.5 C304,24.3284271 304.671573,25 305.5,25 C306.328427,25 307,24.3284271 307,23.5 C307,23.1625765 306.888587,22.8511748 306.700542,22.6005752 L309.13135,18.9543629 C309.249293,18.9841665 309.372797,19 309.5,19 C309.837424,19 310.148825,18.8885871 310.399425,18.7005417 L314.045637,21.1313499 C314.015833,21.249293 314,21.3727974 314,21.5 C314,22.3284271 314.671573,23 315.5,23 C316.328427,23 317,22.3284271 317,21.5 C317,21.1625765 316.888587,20.8511748 316.700542,20.6005752 L319.13135,16.9543629 C319.249293,16.9841665 319.372797,17 319.5,17 C320.328427,17 321,16.3284271 321,15.5 C321,14.6715729 320.328427,14 319.5,14 C318.671573,14 318,14.6715729 318,15.5 C318,15.8374235 318.111413,16.1488252 318.299458,16.3994248 L315.86865,20.0456371 C315.750707,20.0158335 315.627203,20 315.5,20 C315.162576,20 314.851175,20.1114129 314.600575,20.2994583 Z M302,11.9999602 C302,11.4476974 302.438615,11 302.998746,11 L322.001254,11 C322.552846,11 323,11.4547089 323,11.9999602 L323,27.0000398 C323,27.5523026 322.561385,28 322.001254,28 L302.998746,28 C302.447154,28 302,27.5452911 302,27.0000398 L302,11.9999602 Z" id="Statistics-active"></path>
            </g>
        </g>
    </g>
</svg>